# xmcd
#
# Track frame offsets:
#	150
#	16533
#	28649
#	43651
#	58359
#
# Disc length: 984 seconds
#
# Revision: 1
# Processed by: cddbd v1.5.2PL0 Copyright (c) Steve Scherf et al.
# Submitted via: audiograbber 1.83.01
#
DISCID=3703d605
DTITLE=Tim Lauffer - Jij en ik bij elkaar
DYEAR=1900
DGENRE=
TTITLE0=Tim Lauffer - Jij en ik bij elkaar
TTITLE1=Tim Lauffer - 7 Dagen, 7 Nachten
TTITLE2=Tim Lauffer - Meisjes van de nacht
TTITLE3=Tim Lauffer - Nog een keertje met jou
TTITLE4=Tim Lauffer - Dans klein zigeunermeisje
EXTD=
EXTT0=
EXTT1=
EXTT2=
EXTT3=
EXTT4=
PLAYORDER=
